# Blender v2.80 (sub 75) OBJ File: 'peanut-planet.blend'
# www.blender.org
mtllib peanut-planet2.mtl
o Mball.002_Mesh
v 1.329604 1.773448 0.015779
v 1.632258 1.361933 -0.148606
v 1.194660 -0.032468 0.441434
v 0.702370 1.641010 0.872788
v 0.880806 1.964720 0.266306
v 1.057030 1.920428 -0.114815
v 1.549349 0.296250 -0.330026
v 0.895115 -0.297339 0.204002
v 1.343125 -0.019008 -0.112069
v 1.560053 0.803719 -0.657137
v 1.033282 1.264956 -1.009501
v 1.137013 1.685494 -0.620026
v 0.460744 1.921884 0.498204
v 0.155604 1.571689 0.837503
v 0.321551 1.268406 1.076301
v 0.276059 0.669401 1.106595
v 0.459434 -0.086489 0.797377
v 0.884617 -0.279982 -0.284943
v 0.602431 -0.560364 0.353681
v 0.026676 0.243872 0.924452
v -0.089810 0.962811 0.951828
v -0.021891 1.806051 0.322800
v 0.326791 1.998125 -0.003182
v 0.671992 1.967562 -0.380131
v 1.227951 0.627501 -0.952074
v 1.253168 0.207656 -0.713435
v 0.664279 -0.587897 -0.002952
v 0.152907 -1.478188 0.638803
v 0.437584 -1.381474 0.222401
v 0.607101 -0.598449 -0.298928
v 0.582855 -0.239216 -0.637768
v 0.492998 -0.001914 -0.838383
v 0.969738 0.890913 -1.092312
v 0.664430 1.660250 -0.853807
v 0.285805 1.712063 -0.730657
v 0.492682 -1.220102 -0.246627
v -0.046316 -1.835412 0.372712
v -0.329624 -1.611112 0.842514
v -0.153153 -1.270689 0.982867
v -0.572913 -0.631753 1.131330
v -0.422313 0.048462 0.822846
v -0.399893 0.566106 0.658115
v -0.005102 1.819665 -0.288493
v -0.075183 1.536040 -0.685479
v 0.195568 1.254762 -1.013427
v 0.262474 0.705655 -1.102968
v 0.134840 0.238009 -0.925067
v 0.220550 -1.466834 -0.593550
v -0.225775 -1.974584 -0.164051
v 0.272302 -1.637471 -0.189306
v 0.250489 -1.065761 -0.814655
v 0.389038 -0.575880 -0.676307
v 0.204928 -0.274405 -0.825447
v -0.092676 -0.130048 -0.897369
v -0.221163 0.946522 -0.826771
v -0.390116 1.241477 -0.497405
v -0.448909 1.379673 -0.154879
v -0.404239 1.245640 0.512888
v -0.605526 0.654048 0.251174
v -1.050670 -0.226434 0.858339
v -1.015339 -0.545895 1.025962
v -0.531296 -1.288348 1.077265
v -0.600753 -1.986838 0.268266
v -0.119507 -1.323920 -0.972360
v -0.396150 0.068381 -0.833779
v -0.174108 0.397965 -0.839419
v -0.642081 0.226914 -0.612893
v -0.184982 -0.776336 -1.105358
v -0.081484 -1.757113 -0.563613
v -1.022668 -1.941765 0.036689
v -1.204270 -1.708811 0.490417
v -1.318902 -0.014034 0.316682
v -0.831643 0.370998 0.038815
v -0.767495 0.342401 -0.344575
v -0.623506 -0.563917 -1.145599
v -0.763825 -1.985393 -0.275461
v -1.311792 -1.263263 0.827077
v -1.407236 -0.620471 0.781827
v -1.561518 -0.263209 0.190321
v -0.513719 -1.182636 -1.138721
v -0.427004 -1.748385 -0.761171
v -0.731692 -1.577425 -0.918083
v -1.038934 -1.246703 -1.025611
v -0.975228 -0.870402 -1.109208
v -1.331389 -0.430957 -0.822749
v -1.407127 -0.069601 -0.314865
v -0.949748 -0.239337 -0.940007
v -1.721034 -0.630135 -0.238912
v -1.588665 -0.470144 0.453317
v -1.626613 -0.967060 0.498330
v -1.546137 -1.368155 0.402490
v -1.458324 -1.631962 0.103444
v -1.743062 -1.029902 0.041914
v -1.623915 -1.320355 -0.292259
v -1.297318 -1.735180 -0.295792
v -1.453732 -1.354212 -0.632908
v -1.437268 -0.810767 -0.824787
v -1.046851 -1.726324 -0.652612
v -0.954974 -1.457732 0.926786
v -0.718832 -1.877561 0.560816
v -0.938090 -0.993414 1.089696
v -0.695471 0.298430 0.480074
v -0.594422 0.767626 -0.138991
v -0.503862 0.585440 -0.525240
v -0.285618 1.604962 0.253961
v 0.491715 0.993774 -1.148372
v 0.008762 -0.201959 0.886926
v 0.205554 -1.120118 0.804203
v -0.154486 -0.855554 1.077437
v 0.433587 -1.125654 0.471289
v 0.778647 0.367860 -1.042274
v 0.402669 -0.423772 0.675111
v 0.644161 0.628969 1.160716
v 1.486490 1.424311 -0.503121
v 0.849379 1.339020 1.041489
v 0.919747 0.371319 1.020207
v 1.147844 0.168334 0.758924
v 1.422048 0.494589 0.752918
v 1.065155 0.991890 1.066704
v 1.143322 1.687965 0.621468
v 1.357200 1.184107 0.843275
v 1.689998 0.989964 0.423951
v 1.472797 1.543856 0.347714
v 1.652091 0.371185 0.144024
v 1.747670 0.865751 -0.197561
vn 0.8978 -0.4167 0.1421
vn 0.6089 -0.6994 0.3743
vn 0.6642 -0.7414 -0.0957
vn 0.6621 -0.7487 0.0327
vn 0.7987 -0.4616 0.3860
vn 0.6150 -0.7265 -0.3065
vn 0.5742 -0.5578 -0.5992
vn 0.5524 -0.1805 -0.8138
vn 0.8200 -0.0297 -0.5715
vn 0.4686 0.7094 -0.5265
vn 0.7599 0.4612 -0.4580
vn 0.3892 0.3445 -0.8543
vn 0.8865 -0.4625 0.0152
vn 0.5670 -0.2600 0.7816
vn 0.8684 -0.2576 0.4237
vn -0.5141 0.8120 0.2761
vn -0.7459 0.6331 0.2065
vn -0.4033 0.6032 0.6881
vn 0.0621 0.6594 -0.7492
vn 0.9180 -0.3298 -0.2200
vn 0.8532 -0.3778 -0.3595
vn 0.3057 0.0122 -0.9521
vn 0.1672 -0.3833 -0.9083
vn -0.0581 0.1299 -0.9898
vn -0.2632 -0.1089 -0.9586
vn 0.7111 -0.1380 -0.6894
vn 0.7030 -0.1878 -0.6859
vn -0.5148 0.8211 -0.2465
vn -0.8816 0.4558 -0.1229
vn -0.1386 -0.1995 -0.9700
vn 0.5058 -0.5185 -0.6894
vn 0.3816 -0.0968 -0.9192
vn 0.7261 -0.6756 -0.1281
vn 0.4586 -0.8277 0.3232
vn 0.2990 -0.9462 -0.1235
vn -0.6497 0.1362 -0.7478
vn -0.4554 0.0555 -0.8885
vn -0.5821 0.5634 -0.5863
vn -0.8291 0.3432 -0.4413
vn -0.3352 0.3411 -0.8782
vn -0.8282 0.3471 0.4400
vn -0.8876 0.3622 0.2845
vn -0.2432 0.3741 0.8949
vn -0.6066 0.5877 0.5354
vn -0.4172 0.5382 0.7323
vn -0.0028 0.1892 0.9819
vn -0.3631 0.2483 0.8980
vn 0.6949 -0.5109 -0.5060
vn 0.4344 -0.7627 -0.4790
vn 0.3952 -0.4093 -0.8223
vn -0.5019 0.5560 -0.6625
vn -0.2095 0.3855 -0.8986
vn -0.7663 0.2881 -0.5743
vn 0.3418 0.0388 -0.9389
vn -0.1379 -0.9595 -0.2455
vn 0.0089 -0.9763 0.2159
vn -0.3784 -0.9245 0.0446
vn -0.3496 0.5165 -0.7817
vn -0.0455 0.2294 -0.9723
vn 0.1058 0.1542 -0.9823
vn 0.0652 -0.2720 -0.9601
vn 0.1291 -0.7625 -0.6339
vn -0.6250 -0.3150 0.7142
vn -0.8303 -0.4360 0.3470
vn -0.5204 -0.7345 0.4354
vn -0.8590 0.3306 0.3908
vn -0.8965 -0.0772 0.4362
vn -0.6925 0.1926 0.6952
vn -0.1169 -0.6129 -0.7815
vn -0.3315 0.0190 -0.9432
vn -0.6319 0.3890 -0.6702
vn -0.7033 0.6565 -0.2727
vn -0.8516 0.5068 0.1333
vn -0.6403 0.7075 0.2990
vn -0.9601 0.1903 -0.2046
vn -0.7465 0.0114 -0.6653
vn -0.7455 -0.3945 -0.5372
vn -0.3996 -0.3358 -0.8529
vn -0.9893 -0.1362 0.0526
vn -0.8998 -0.3624 -0.2428
vn -0.7506 -0.6540 0.0936
vn -0.6078 -0.7560 -0.2427
vn -0.7246 0.6853 0.0727
vn -0.6790 0.6271 -0.3817
vn -0.9296 0.3422 -0.1369
vn -0.1092 -0.8515 0.5128
vn 0.3890 -0.3589 0.8484
vn 0.0312 -0.3632 0.9312
vn 0.1926 -0.6666 0.7201
vn -0.3091 -0.0996 0.9458
vn -0.2791 -0.5421 0.7926
vn 0.1649 -0.4563 -0.8744
vn -0.2155 0.9763 -0.0193
vn 0.2126 0.0514 0.9758
vn -0.2263 -0.1256 0.9659
vn 0.3506 -0.0145 0.9364
vn 0.6699 -0.2291 0.7062
vn 0.6287 -0.5445 0.5552
vn 0.0564 0.9450 -0.3221
vn -0.2595 0.7402 -0.6203
vn 0.8630 -0.4660 0.1949
vn -0.1003 0.9012 0.4216
vn 0.2365 -0.4186 0.8768
vn 0.3028 -0.3978 0.8660
vn 0.0498 -0.1589 0.9860
vn 0.6382 0.7699 0.0005
vn 0.3818 0.9146 -0.1328
vn 0.1009 0.6850 0.7215
vn 0.4844 -0.6114 0.6258
vn -0.2142 0.3136 0.9250
vn -0.5728 0.1264 0.8099
vn -0.2692 -0.1004 0.9578
vn 0.2399 0.9432 0.2297
vn 0.8292 -0.4697 -0.3027
vn 0.9863 0.0023 -0.1649
vn 0.3932 0.0703 0.9167
vn 0.6604 0.2727 0.6996
vn 0.2177 0.3886 0.8953
vn 0.7693 0.5651 0.2980
vn 0.4623 0.7111 0.5297
vn 0.9026 0.4171 -0.1064
vn 0.7207 -0.2979 0.6259
vn 0.9333 0.1019 0.3444
vn -0.6995 0.1785 0.6919
vn -0.3872 -0.7488 -0.5380
usemtl None
s 1
f 124//1 3//2 9//3
f 8//4 3//2 19//5
f 9//3 8//4 18//6
f 9//3 18//6 26//7
f 25//8 10//9 26//7
f 12//10 114//11 11//12
f 8//4 27//13 18//6
f 19//5 112//14 110//15
f 22//16 105//17 14//18
f 12//10 11//12 34//19
f 36//20 30//21 27//13
f 33//22 111//23 106//24
f 11//12 106//24 34//19
f 106//24 111//23 46//25
f 52//26 30//21 51//27
f 36//20 51//27 30//21
f 43//28 57//29 105//17
f 111//23 47//30 46//25
f 31//31 52//26 53//32
f 50//33 37//34 49//35
f 55//36 46//25 66//37
f 44//38 55//36 56//39
f 45//40 55//36 44//38
f 46//25 55//36 45//40
f 43//28 44//38 57//29
f 58//41 57//29 59//42
f 41//43 102//44 60//45
f 40//46 60//45 61//47
f 48//48 69//49 64//50
f 51//27 48//48 64//50
f 67//51 66//37 65//52
f 67//51 104//53 66//37
f 68//54 51//27 64//50
f 76//55 63//56 70//57
f 87//58 65//52 75//59
f 54//60 75//59 65//52
f 75//59 68//54 80//61
f 49//35 76//55 81//62
f 77//63 91//64 71//65
f 89//66 90//67 78//68
f 82//69 80//61 81//62
f 84//70 87//58 75//59
f 85//71 86//72 87//58
f 79//73 72//74 86//72
f 89//66 79//73 88//75
f 97//76 96//77 88//75
f 85//71 97//76 88//75
f 84//70 80//61 83//78
f 97//76 85//71 84//70
f 84//70 83//78 97//76
f 83//78 96//77 97//76
f 93//79 94//80 92//81
f 93//79 92//81 91//64
f 94//80 95//82 92//81
f 77//63 90//67 91//64
f 79//73 86//72 88//75
f 87//58 84//70 85//71
f 86//72 73//83 74//84
f 91//64 92//81 71//65
f 71//65 92//81 70//57
f 65//52 87//58 67//51
f 74//84 73//83 103//85
f 55//36 66//37 104//53
f 104//53 74//84 103//85
f 103//85 73//83 59//42
f 61//47 60//45 78//68
f 60//45 72//74 89//66
f 89//66 72//74 79//73
f 60//45 89//66 78//68
f 77//63 78//68 90//67
f 100//86 71//65 70//57
f 54//60 68//54 75//59
f 53//32 68//54 54//60
f 39//87 62//88 38//89
f 62//88 101//90 99//91
f 40//46 101//90 62//88
f 40//46 61//47 101//90
f 41//43 60//45 40//46
f 105//17 57//29 58//41
f 56//39 103//85 57//29
f 104//53 103//85 56//39
f 66//37 47//30 54//60
f 47//30 53//32 54//60
f 32//92 47//30 111//23
f 46//25 45//40 106//24
f 22//16 23//93 43//28
f 107//94 20//95 41//43
f 112//14 109//96 108//97
f 19//5 110//15 27//13
f 108//97 39//87 28//98
f 38//89 28//98 39//87
f 39//87 108//97 109//96
f 24//99 34//19 35//100
f 33//22 25//8 111//23
f 111//23 26//7 31//31
f 43//28 105//17 22//16
f 109//96 40//46 62//88
f 48//48 36//20 50//33
f 51//27 36//20 48//48
f 45//40 34//19 106//24
f 35//100 44//38 43//28
f 31//31 32//92 111//23
f 110//15 28//98 29//101
f 27//13 110//15 29//101
f 36//20 27//13 29//101
f 26//7 18//6 31//31
f 25//8 26//7 111//23
f 24//99 43//28 23//93
f 23//93 22//16 13//102
f 17//103 107//94 112//14
f 110//15 112//14 108//97
f 27//13 30//21 18//6
f 17//103 116//104 113//105
f 1//106 12//10 6//107
f 14//18 4//108 13//102
f 116//104 17//103 117//109
f 15//110 21//111 16//112
f 15//110 14//18 21//111
f 13//102 22//16 14//18
f 5//113 24//99 23//93
f 6//107 12//10 24//99
f 10//9 7//114 26//7
f 3//2 117//109 17//103
f 7//114 9//3 26//7
f 10//9 125//115 7//114
f 119//116 121//117 115//118
f 123//119 120//120 121//117
f 123//119 2//121 1//106
f 124//1 118//122 3//2
f 122//123 118//122 124//1
f 125//115 122//123 124//1
f 2//121 122//123 125//115
f 122//123 123//119 121//117
f 118//122 119//116 116//104
f 118//122 116//104 117//109
f 115//118 120//120 4//108
f 6//107 5//113 1//106
f 15//110 4//108 14//18
f 4//108 15//110 115//118
f 86//72 74//84 67//51 87//58
f 124//1 9//3 7//114
f 125//115 124//1 7//114
f 11//12 10//9 25//8
f 35//100 34//19 45//40
f 29//101 50//33 36//20
f 84//70 75//59 80//61
f 114//11 1//106 2//121
f 114//11 2//121 125//115
f 12//10 1//106 114//11
f 9//3 3//2 8//4
f 3//2 17//103 112//14
f 19//5 3//2 112//14
f 20//95 21//111 42//124
f 14//18 105//17 58//41
f 11//12 25//8 33//22
f 11//12 33//22 106//24
f 35//100 45//40 44//38
f 32//92 31//31 53//32
f 37//34 38//89 100//86
f 37//34 100//86 63//56
f 66//37 46//25 47//30
f 44//38 56//39 57//29
f 64//50 69//49 81//62
f 69//49 49//35 81//62
f 76//55 49//35 63//56
f 63//56 100//86 70//57
f 80//61 68//54 64//50
f 64//50 81//62 80//61
f 81//62 76//55 98//125
f 76//55 70//57 95//82 98//125
f 93//79 89//66 88//75
f 91//64 90//67 93//79
f 70//57 92//81 95//82
f 96//77 95//82 94//80
f 85//71 88//75 86//72
f 96//77 98//125 95//82
f 78//68 77//63 101//90 61//47
f 83//78 82//69 98//125
f 83//78 98//125 96//77
f 88//75 96//77 94//80
f 88//75 94//80 93//79
f 89//66 93//79 90//67
f 82//69 83//78 80//61
f 82//69 81//62 98//125
f 72//74 102//44 73//83
f 102//44 59//42 73//83
f 99//91 101//90 77//63
f 60//45 102//44 72//74
f 104//53 67//51 74//84
f 86//72 72//74 73//83
f 71//65 99//91 77//63
f 100//86 99//91 71//65
f 66//37 54//60 65//52
f 100//86 38//89 62//88
f 62//88 99//91 100//86
f 42//124 59//42 102//44
f 59//42 57//29 103//85
f 56//39 55//36 104//53
f 53//32 52//26 68//54
f 48//48 50//33 69//49
f 69//49 50//33 49//35
f 49//35 37//34 63//56
f 47//30 32//92 53//32
f 21//111 58//41 42//124
f 112//14 107//94 109//96
f 29//101 28//98 37//34
f 40//46 109//96 107//94
f 107//94 41//43 40//46
f 24//99 35//100 43//28
f 42//124 58//41 59//42
f 41//43 42//124 102//44
f 41//43 20//95 42//124
f 39//87 109//96 62//88
f 37//34 28//98 38//89
f 50//33 29//101 37//34
f 31//31 18//6 30//21
f 31//31 30//21 52//26
f 28//98 110//15 108//97
f 21//111 14//18 58//41
f 8//4 19//5 27//13
f 15//110 16//112 113//105
f 113//105 20//95 17//103
f 113//105 16//112 20//95
f 16//112 21//111 20//95
f 5//113 23//93 13//102
f 5//113 6//107 24//99
f 24//99 12//10 34//19
f 11//12 114//11 10//9
f 10//9 114//11 125//115
f 120//120 13//102 4//108
f 115//118 113//105 119//116
f 121//117 120//120 115//118
f 123//119 1//106 120//120
f 3//2 118//122 117//109
f 123//119 122//123 2//121
f 118//122 122//123 121//117
f 119//116 113//105 116//104
f 121//117 119//116 118//122
f 13//102 120//120 5//113
f 113//105 115//118 15//110
f 1//106 5//113 120//120
f 17//103 20//95 107//94
f 68//54 52//26 51//27
